<?xml version="1.0" encoding="utf-8"?>
<!-- Generator: Adobe Illustrator 27.3.1, SVG Export Plug-In . SVG Version: 6.00 Build 0)  -->
<svg version="1.1" id="Capa_1" xmlns="http://www.w3.org/2000/svg" xmlns:xlink="http://www.w3.org/1999/xlink" x="0px" y="0px"
	 viewBox="0 0 497.87 110.73" style="enable-background:new 0 0 497.87 110.73;" xml:space="preserve">
<style type="text/css">
	.st0{fill:#FFFFFF;}
</style>
<g>
	<g>
		<polygon class="st0" points="211.31,0.46 182.74,0.46 146.19,55.28 182.74,110.1 211.4,110.1 175.29,55.28 		"/>
		<polygon class="st0" points="160.43,0.46 0,0.46 0,110.1 24.22,110.1 24.22,67.47 50.91,67.47 65.5,45.61 24.22,45.61 
			24.22,21.86 91.37,21.8 91.37,110.1 115.59,110.1 115.59,21.8 146.19,21.8 		"/>
	</g>
	<g>
		<path class="st0" d="M281.45,26.92c0-4.29-2.05-7.74-5.64-8.79c2.85-1.35,4.49-4.24,4.49-7.44c0-5.79-2.75-10.24-11.88-10.24
			h-12.58V37.9h12.88C278.41,37.9,281.45,33.11,281.45,26.92z M261.43,5.59h7.14c4.89,0,5.74,2.85,5.74,5.34
			c0,2.4-1.05,5.14-5.54,5.14h-7.34V5.59z M261.43,20.82h7.54c4.74,0,6.49,2.1,6.49,5.94c0,3.1-1.3,5.99-6.54,5.99h-7.49V20.82z"/>
		<polygon class="st0" points="321.75,32.76 304.58,32.76 304.58,21.07 320.16,21.07 320.16,15.93 304.58,15.93 304.58,5.59 
			321.75,5.59 321.75,0.45 298.98,0.45 298.98,37.9 321.75,37.9 		"/>
		<path class="st0" d="M358.6,28.76l2.65,9.14h6.09L355.46,0h-5.69l-11.88,37.9h6.09l2.65-9.14
			C346.63,28.76,358.6,28.76,358.6,28.76z M352.61,7.59l4.79,16.58h-9.59L352.61,7.59z"/>
		<path class="st0" d="M410.04,26.12V0.45h-5.59v25.17c0,7.04-4.89,7.79-7.99,7.79c-3.1,0-7.99-0.75-7.99-7.79V0.45h-5.59v25.67
			c0,10.49,8.49,12.38,13.58,12.38S410.04,36.6,410.04,26.12z"/>
		<polygon class="st0" points="436.4,37.9 441.99,37.9 441.99,5.59 451.73,5.59 451.73,0.45 426.66,0.45 426.66,5.59 436.4,5.59 		
			"/>
		<polygon class="st0" points="491.52,0.45 482.29,17.93 473.05,0.45 466.71,0.45 479.44,22.87 479.44,37.9 485.13,37.9 
			485.13,22.87 497.87,0.45 		"/>
	</g>
	<g>
		<path class="st0" d="M270.42,94.56h6.64v10.24c-1.1,0.4-3.05,0.7-5.34,0.7c-7.59,0-10.34-4.89-10.34-14.08
			c0-8.89,2.65-14.08,10.34-14.08c3.6,0,6.54,0.75,10.04,2.2v-5.49c-2.15-1.05-5.59-1.95-10.74-1.95
			c-11.29,0-15.38,7.54-15.38,19.32s4.09,19.33,15.23,19.33c5.34,0,9.84-1.25,11.78-2.3V89.51h-12.23L270.42,94.56L270.42,94.56z"/>
		<path class="st0" d="M326.1,83.82c0-6.79-3.1-11.14-12.78-11.14h-12.18v37.45h5.59V94.91h7.79l6.79,15.23h6.54l-7.84-16.33
			C324.6,92.21,326.1,88.66,326.1,83.82z M314.11,89.81h-7.39V77.83h7.39c5.19,0,5.89,2.9,5.89,5.99
			C320.01,86.87,319.31,89.81,314.11,89.81z"/>
		<path class="st0" d="M358.55,72.09c-12.03,0-14.43,8.74-14.43,19.32c0,10.59,2.4,19.33,14.43,19.33s14.43-8.74,14.43-19.33
			C372.99,80.82,370.59,72.09,358.55,72.09z M358.55,105.64c-7.09,0-8.69-5.34-8.69-14.23s1.6-14.23,8.69-14.23
			s8.69,5.34,8.69,14.23S365.65,105.64,358.55,105.64z"/>
		<path class="st0" d="M412.38,97.85c0,7.04-4.89,7.79-7.99,7.79c-3.1,0-7.99-0.75-7.99-7.79V72.68h-5.59v25.67
			c0,10.49,8.49,12.38,13.58,12.38s13.58-1.9,13.58-12.38V72.68h-5.59V97.85z"/>
		<path class="st0" d="M448.33,72.68H436.3v37.45h5.59V96.1h6.44c9.64,0,12.98-5.54,12.98-11.68
			C461.32,78.28,457.97,72.68,448.33,72.68z M448.58,91.01h-6.69V77.83h6.69c5.59,0,6.64,3.79,6.64,6.59
			C455.22,87.22,454.17,91.01,448.58,91.01z"/>
	</g>
</g>
</svg>
